<svg xmlns="http://www.w3.org/2000/svg" width="20.56" height="13.09" viewBox="0 0 20.56 13.09">
  <defs>
    <style>
      .cls-1 {
        fill: #b8dc1e;
        fill-rule: evenodd;
      }
    </style>
  </defs>
  <path id="google_copy_3" data-name="google + copy 3" class="cls-1" d="M1038.72,3438.35h-6.18v2.25h3.72a3.7,3.7,0,0,1-.19.66,3.5,3.5,0,0,1-.44.74,3.865,3.865,0,0,1-.7.7,3.245,3.245,0,0,1-1.02.51,4.279,4.279,0,0,1-1.37.21,4.016,4.016,0,0,1-2.03-.55,4.1,4.1,0,0,1-1.47-1.51,4.1,4.1,0,0,1,3.5-6.21,3.6,3.6,0,0,1,2.61,1.01l1.78-1.71a6.2,6.2,0,0,0-4.39-1.71,6.345,6.345,0,0,0-2.54.52,6.364,6.364,0,0,0-3.48,3.48,6.488,6.488,0,0,0,0,5.09,6.364,6.364,0,0,0,3.48,3.48,6.345,6.345,0,0,0,2.54.52,6.517,6.517,0,0,0,3.3-.82,5.492,5.492,0,0,0,2.21-2.27,6.846,6.846,0,0,0,.78-3.3,5.925,5.925,0,0,0-.11-1.09h0Zm5.99,0v-1.87h-1.88v1.87h-1.87v1.87h1.87v1.87h1.88v-1.87h1.86v-1.87h-1.86Z" transform="translate(-1026 -3432.75)"/>
</svg>
