<svg xmlns="http://www.w3.org/2000/svg" width="74.97" height="48.03" viewBox="0 0 74.97 48.03">
  <defs>
    <style>
      .cls-1 {
        fill: #b8dc1e;
        fill-opacity: 0;
        stroke: #b8dc1e;
        stroke-linejoin: round;
        stroke-width: 2px;
        fill-rule: evenodd;
      }
    </style>
  </defs>
  <path id="Shape_10_copy_3" data-name="Shape 10 copy 3" class="cls-1" d="M1486.98,3105.36a2.818,2.818,0,0,0-1.54-2.51V3085.6a0.536,0.536,0,0,0,.33-0.5,0.507,0.507,0,0,0-.35-0.49l-34.86-12.55a1.831,1.831,0,0,0-1.38,0l-34.85,12.55a0.5,0.5,0,0,0-.34.49,0.527,0.527,0,0,0,.32.5l34.82,13.83a1.95,1.95,0,0,0,1.5,0l32.4-12.88v16.3a2.814,2.814,0,0,0,.13,5.08,23.49,23.49,0,0,0-1.67,7.23,2.746,2.746,0,1,0,5.49,0,23.49,23.49,0,0,0-1.67-7.23,2.79,2.79,0,0,0,1.67-2.57h0Zm0,0-61.76-12.79v9.41c0,7.4,10.93,13.43,24.66,13.81,13.73-.38,24.65-6.4,24.65-13.81,0-.75,0-5.43.01-9.41l-23.91,9.5a2.045,2.045,0,0,1-1.5,0Zm0,0" transform="translate(-1413 -3070.94)"/>
</svg>
