<svg xmlns="http://www.w3.org/2000/svg" width="16" height="15" viewBox="0 0 16 15">
  <defs>
    <style>
      .cls-1 {
        fill: #adadad;
        fill-rule: evenodd;
      }
    </style>
  </defs>
  <path id="Shape_590_copy_2" data-name="Shape 590 copy 2" class="cls-1" d="M442.612,1579.99c1.782,0,3.126,1.45,3.35,3.61,0,0.02,0,.04,0,0.07a5.031,5.031,0,0,1-.074,1.33,6.382,6.382,0,0,1-1.911,3.2l-5,4.53-4.946-4.55a6.1,6.1,0,0,1-1.9-3.23,3.755,3.755,0,0,1-.147-1.3c0-.02,0-0.04,0-0.05,0.224-2.16,1.568-3.61,3.349-3.61a3.23,3.23,0,0,1,2.644,1.4,1.093,1.093,0,0,0,.993.65,1,1,0,0,0,.708-0.3l0.088-.09a0.793,0.793,0,0,0,.114-0.13,3.422,3.422,0,0,1,2.726-1.53m-10.62,3.53h0m10.62-4.52a4.424,4.424,0,0,0-3.547,1.95l-0.089.09a0.087,0.087,0,0,1-.089-0.09,4.2,4.2,0,0,0-3.548-1.95c-2.306,0-4.08,1.86-4.346,4.52a4.736,4.736,0,0,0,.177,1.69,7.063,7.063,0,0,0,2.218,3.73l5.5,5.06h0.178l5.587-5.06a7.419,7.419,0,0,0,2.218-3.73,6.216,6.216,0,0,0,.089-1.69c-0.267-2.66-2.041-4.52-4.347-4.52h0Z" transform="translate(-431 -1579)"/>
</svg>
