<svg xmlns="http://www.w3.org/2000/svg" width="31" height="34" viewBox="0 0 31 34">
  <defs>
    <style>
      .cls-1 {
        fill: #fff;
        fill-rule: evenodd;
      }
    </style>
  </defs>
  <path id="Rectangle_1_copy_3" data-name="Rectangle 1 copy 3" class="cls-1" d="M764,921v20a6.521,6.521,0,1,1-6.5-6,6.76,6.76,0,0,1,4.5,1.684v-9.22l-16,4.4V945h-0.4a5.543,5.543,0,0,1,.4,2,6.521,6.521,0,1,1-6.5-6,6.756,6.756,0,0,1,4.5,1.685V924h1.3l18.19-5,0.5,1.914M739.5,943a4.028,4.028,0,1,0,4.5,4A4.272,4.272,0,0,0,739.5,943Zm18-6a4.028,4.028,0,1,0,4.5,4A4.272,4.272,0,0,0,757.5,937ZM746,925.859v3.948l16-4.4v-3.948Z" transform="translate(-733 -919)"/>
</svg>
