<svg xmlns="http://www.w3.org/2000/svg" width="17.97" height="14.56" viewBox="0 0 17.97 14.56">
  <defs>
    <style>
      .cls-1 {
        fill: #b8dc1e;
        fill-rule: evenodd;
      }
    </style>
  </defs>
  <path id="twitter_copy_3" data-name="twitter copy 3" class="cls-1" d="M1081.55,3433.71a7.026,7.026,0,0,1-2.11.57,3.648,3.648,0,0,0,1.61-2.03,6.982,6.982,0,0,1-2.34.88,3.692,3.692,0,0,0-5.21-.13,3.617,3.617,0,0,0-1.15,2.64,4.022,4.022,0,0,0,.09.85,10.518,10.518,0,0,1-7.59-3.83,3.652,3.652,0,0,0,1.14,4.89,3.638,3.638,0,0,1-1.67-.49h0a3.672,3.672,0,0,0,2.95,3.66,3.906,3.906,0,0,1-.97.12,3.669,3.669,0,0,1-.66-0.05,3.687,3.687,0,0,0,3.44,2.54,7.413,7.413,0,0,1-4.6,1.56c-0.29.01-.59,0.01-0.88,0a10.506,10.506,0,0,0,5.64,1.64,10.367,10.367,0,0,0,10.47-10.27,0.739,0.739,0,0,0,0-.21v-0.48A7.56,7.56,0,0,0,1081.55,3433.71Z" transform="translate(-1063.59 -3431.97)"/>
</svg>
