<svg xmlns="http://www.w3.org/2000/svg" width="26.31" height="24.406" viewBox="0 0 26.31 24.406">
  <defs>
    <style>
      .cls-1 {
        fill: #fff;
        fill-rule: evenodd;
      }
    </style>
  </defs>
  <path id="Shape_8_copy_2" data-name="Shape 8 copy 2" class="cls-1" d="M1644.74,47.675a1.4,1.4,0,0,0-1.25.167c-0.02.017-.05,0.017-0.07,0.034a9.812,9.812,0,0,1,1.91,5.805v1.355a3.378,3.378,0,0,1-.44,1.673h2.71a1.411,1.411,0,0,0,1.4-1.439V54.117A6.941,6.941,0,0,0,1644.74,47.675Zm-5.56-3.095a0.425,0.425,0,0,1,.16.05,9.43,9.43,0,0,1,3.04,2.024,6.138,6.138,0,0,0,1.55-1.121,5.845,5.845,0,0,0,1.63-4.032,5.666,5.666,0,0,0-4.85-5.672,8.2,8.2,0,0,1,.61,3.145A8.368,8.368,0,0,1,1639.18,44.581Zm4.42,7.864a5.391,5.391,0,0,0-.11-0.552,0.243,0.243,0,0,0-.02-0.117,2.274,2.274,0,0,0-.15-0.519,4.017,4.017,0,0,0-.19-0.551,7.73,7.73,0,0,0-1.26-2.175,5.89,5.89,0,0,0-.46-0.5,0.219,0.219,0,0,0-.06-0.084c-0.1-.1-0.2-0.2-0.29-0.285a0.813,0.813,0,0,0-.1-0.083,3.391,3.391,0,0,0-.39-0.335,0.975,0.975,0,0,1-.1-0.083h-0.02a8.654,8.654,0,0,0-1.71-.971,1.36,1.36,0,0,0-.52-0.1,1.937,1.937,0,0,0-.95.284c-0.03.016-.05,0.033-0.08,0.05a0.166,0.166,0,0,1-.08.033,7.313,7.313,0,0,1-.77.385,0.331,0.331,0,0,1-.08.033,8.485,8.485,0,0,1-.93.318,8.081,8.081,0,0,1-2.14.284,7.916,7.916,0,0,1-4.04-1.1,2.08,2.08,0,0,0-.98-0.284,1.385,1.385,0,0,0-.51.1,8.1,8.1,0,0,0-4.96,7.5v1.355a1.661,1.661,0,0,0,1.63,1.673h17.74a1.661,1.661,0,0,0,1.63-1.673V53.682c0-.251-0.02-0.485-0.03-0.719C1643.65,52.779,1643.63,52.611,1643.6,52.444ZM1630.68,45.1a6.283,6.283,0,0,0,2.51.519,6.565,6.565,0,0,0,2.5-.5,0.079,0.079,0,0,1,.03-0.017,6.818,6.818,0,0,0,2.06-1.422,6.781,6.781,0,0,0,1.17-7.8,6.479,6.479,0,0,0-5.76-3.563,6.584,6.584,0,0,0-6.49,6.659A6.631,6.631,0,0,0,1630.68,45.1Z" transform="translate(-1622.69 -32.313)"/>
</svg>
