<svg xmlns="http://www.w3.org/2000/svg" width="48" height="48" viewBox="0 0 48 48">
  <defs>
    <style>
      .cls-1 {
        fill: #fff;
        fill-rule: evenodd;
      }
    </style>
  </defs>
  <path id="Rectangle_503_copy_2" data-name="Rectangle 503 copy 2" class="cls-1" d="M1452,961v-2a22,22,0,0,0,22-22h2A24,24,0,0,1,1452,961Zm3.05-7v-2.055a15.279,15.279,0,0,0,11.9-11.9H1469A17.282,17.282,0,0,1,1455.05,954ZM1430,937h-2a24,24,0,0,1,24-24v2A22,22,0,0,0,1430,937Zm18.95-17v2.055a15.277,15.277,0,0,0-11.9,11.895H1435A17.268,17.268,0,0,1,1448.95,920Z" transform="translate(-1428 -913)"/>
</svg>
